<?xml version="1.0" encoding="UTF-8"?>
<!DOCTYPE svg PUBLIC "-//W3C//DTD SVG 1.1//EN" "http://www.w3.org/Graphics/SVG/1.1/DTD/svg11.dtd">
<!-- Creator: CorelDRAW 2021.5 -->
<svg xmlns="http://www.w3.org/2000/svg" xml:space="preserve" width="203.402mm" height="85.7339mm" version="1.1" style="shape-rendering:geometricPrecision; text-rendering:geometricPrecision; image-rendering:optimizeQuality; fill-rule:evenodd; clip-rule:evenodd"
viewBox="0 0 20339.14 8572.94"
 xmlns:xlink="http://www.w3.org/1999/xlink"
 xmlns:xodm="http://www.corel.com/coreldraw/odm/2003">
 <defs>
  <style type="text/css">
   <![CDATA[
    .str0 {stroke:#527A2B;stroke-width:31.41;stroke-miterlimit:22.9256}
    .fil0 {fill:none;fill-rule:nonzero}
    .fil3 {fill:#FBBE07}
    .fil4 {fill:#527A2B}
    .fil2 {fill:#A75F4A;fill-rule:nonzero}
    .fil1 {fill:#527A2B;fill-rule:nonzero}
   ]]>
  </style>
 </defs>
 <g id="Layer_x0020_1">
  <metadata id="CorelCorpID_0Corel-Layer"/>
  <g id="_1957289550848">
   <g>
    <path class="fil0 str0" d="M9177 3183.51l-94.72 0c-8.36,-32.51 -22.75,-71.51 -44.11,-116.54 -21.36,-44.57 -45.04,-87.29 -71.51,-127.21 -27.39,-41.79 -57.11,-78 -89.14,-109.57 -32.51,-31.11 -63.62,-49.22 -93.33,-53.86 -28.32,-3.25 -63.61,-6.03 -106.32,-7.89 -42.72,-1.86 -82.18,-2.79 -118.39,-2.79l-78.93 0 0 1543.77c0,29.72 6.5,57.11 19.03,82.18 12.54,25.08 34.83,44.11 66.4,57.58 16.25,6.5 50.61,14.86 102.6,26 52.01,10.68 92.4,16.72 121.18,17.64l0 97.5 -910.94 0 0 -97.5c25.54,-1.85 64.08,-5.57 116.54,-10.68 52,-5.57 88.22,-12.53 108.17,-20.43 30.18,-12.07 52.01,-28.78 66.4,-51.07 13.93,-22.29 20.89,-52 20.89,-89.15l0 -1555.84 -78.93 0c-28.32,0 -63.15,0.47 -104.93,1.86 -41.78,1.39 -81.71,4.64 -119.78,8.82 -29.71,3.72 -60.82,21.82 -93.33,53.86 -32.03,32.5 -61.75,68.72 -89.14,109.57 -26.93,40.86 -51.08,84.51 -71.97,130 -20.9,45.97 -35.29,83.58 -43.65,113.75l-94.72 0 0 -523.72 1682.59 0 0 523.72zm1391.95 1382.66c-43.18,15.78 -80.79,28.32 -113.28,37.61 -32.51,9.75 -69.19,14.39 -110.5,14.39 -71.51,0 -128.61,-16.72 -170.86,-49.68 -42.72,-32.97 -70.11,-81.26 -81.72,-144.86l-8.36 0c-58.5,65.47 -121.64,115.14 -188.96,149.04 -67.33,33.89 -148.57,51.07 -243.76,51.07 -100.28,0 -182.93,-30.64 -247.47,-92.4 -64.54,-61.29 -97.03,-142.07 -97.03,-241.43 0,-51.54 7.43,-97.5 21.82,-138.36 14.4,-40.86 36.22,-77.54 65.47,-110.03 22.75,-26.93 52.47,-51.07 89.61,-72.43 37.15,-21.36 72.44,-38.08 104.93,-51.08 40.86,-15.32 123.5,-43.64 248.4,-85.43 124.89,-41.33 208.93,-73.83 252.57,-97.5l0 -133.71c0,-12.07 -2.32,-34.36 -7.42,-67.79 -5.11,-33.43 -15.79,-65.01 -32.04,-94.72 -18.57,-33.43 -44.11,-62.22 -77.54,-87.29 -33.43,-24.61 -80.79,-37.15 -142.07,-37.15 -41.79,0 -80.79,6.97 -117,20.9 -35.75,13.93 -61.29,28.78 -75.68,44.11 0,18.1 4.18,44.57 12.53,79.86 8.82,34.82 13,67.32 13,97.03 0,31.57 -14.39,60.36 -42.71,86.83 -28.33,26 -67.79,39 -118.39,39 -45.04,0 -78.47,-16.25 -99.36,-48.29 -21.36,-32.04 -32.03,-67.79 -32.03,-107.71 0,-41.79 14.85,-81.26 44.11,-119.32 29.71,-38.07 68.25,-71.97 115.6,-101.67 40.86,-25.54 90.08,-46.9 148.57,-64.54 58.04,-17.65 114.68,-26.47 170.39,-26.47 76.15,0 143,5.11 199.65,15.79 57.11,10.21 108.64,32.5 155.07,66.86 45.97,33.43 81.26,78.93 105.39,136.5 24.14,57.57 36.22,131.39 36.22,221.93 0,129.07 -1.4,243.75 -4.18,344.04 -2.79,99.81 -4.18,208.93 -4.18,327.78 0,35.29 6.04,63.15 18.57,84.04 12.07,20.9 31.11,38.54 56.65,52.94 13.93,7.89 35.29,12.53 65,13.46 29.72,0.93 59.9,1.39 91.01,1.39l0 87.3zm-476.36 -716.87c-77.54,22.75 -145.78,45.04 -204.29,66.4 -58.5,21.82 -112.82,49.22 -162.96,81.72 -45.97,31.11 -81.72,67.33 -108.18,109.57 -26.46,42.25 -39.93,92.4 -39.93,150.43 0,75.22 19.97,130.46 59.43,165.75 39.47,35.28 89.62,52.93 150.43,52.93 64.54,0 121.18,-15.79 170.4,-46.9 49.21,-31.11 90.54,-68.25 123.96,-110.96l11.14 -468.94zm1491.76 85.9c37.15,32.5 65.47,70.11 85.43,112.82 19.97,42.72 29.72,94.72 29.72,156 0,123.96 -46.43,225.65 -138.82,304.57 -92.4,78.47 -212.18,117.93 -359.36,117.93 -78,0 -149.5,-14.4 -214.97,-43.18 -65.47,-28.79 -111.89,-55.26 -140.21,-78.94l-26.93 88.69 -103.07 0 -13.93 -465.23 94.72 0c7.43,35.75 22.75,77.08 45.97,124.43 23.68,47.36 52,90.54 84.97,128.6 35.29,40.4 77.54,74.29 126.75,101.68 49.21,27.39 104.46,40.86 165.75,40.86 86.36,0 153.21,-19.97 200.11,-59.43 46.89,-39.47 70.11,-96.57 70.11,-170.4 0,-38.07 -7.43,-70.57 -22.29,-98.42 -14.86,-27.4 -36.68,-51.54 -65.47,-72.44 -29.71,-20.89 -66.39,-39.93 -109.56,-56.64 -43.65,-16.72 -91.94,-32.97 -144.86,-49.22 -42.25,-13 -89.61,-30.18 -141.61,-52.47 -51.54,-22.28 -96.1,-48.29 -133.25,-78 -39.46,-31.57 -71.96,-70.58 -97.03,-117 -25.53,-45.97 -38.07,-100.28 -38.07,-162.96 0,-109.57 40.86,-201.97 122.1,-278.12 81.26,-76.15 190.36,-114.21 326.86,-114.21 52.47,0 105.86,6.97 160.64,20.43 54.79,13.47 99.36,29.72 133.72,48.75l31.11 -74.75 97.49 0 19.5 431.79 -94.72 0c-19.03,-95.64 -59.43,-173.18 -122.1,-233.07 -62.22,-59.9 -138.36,-90.08 -228.43,-90.08 -73.83,0 -131.86,18.57 -174.11,56.18 -42.26,37.15 -63.15,82.65 -63.15,135.57 0,40.4 6.97,74.76 20.89,101.68 13.93,27.39 34.83,50.14 63.15,69.18 26.93,18.11 60.83,35.29 102.14,51.07 40.86,15.79 91.47,33.9 151.82,53.4 59.9,19.04 116.07,41.32 168.54,66.86 52.93,25.07 96.57,53.4 130.46,84.04zm1146.34 597.08c-58.97,24.15 -114.68,44.57 -167.15,61.29 -52.47,16.25 -117,24.61 -192.68,24.61 -112.35,0 -191.75,-28.32 -237.25,-84.97 -45.97,-56.65 -68.72,-136.96 -68.72,-240.04l0 -909.08 -242.36 0 0 -130.93 247.93 0 0 -417.86 247.93 0 0 417.86 384.44 0 0 130.93 -381.65 0 0 751.69c0,56.64 1.86,103.53 6.04,141.6 4.17,37.61 13.93,70.58 29.25,98.89 14.39,26 36.21,46.43 65,59.9 28.79,13.46 67.79,20.43 116.53,20.43 22.76,0 56.19,-2.32 99.82,-6.5 43.65,-4.18 74.76,-9.29 92.87,-15.79l0 97.96zm1326.48 -256.76c-56.19,106.79 -131.86,192.22 -226.58,255.83 -94.25,63.61 -203.36,95.18 -325.93,95.18 -108.17,0 -202.89,-19.04 -284.61,-57.11 -81.26,-38.08 -148.11,-89.62 -201.04,-154.61 -52.93,-65.47 -91.94,-141.61 -117.93,-228.43 -26,-86.83 -39,-178.76 -39,-275.33 0,-87.29 13.93,-172.72 41.79,-256.29 27.39,-83.58 68.25,-159.25 121.64,-226.12 52,-64.07 116.07,-116.06 193.14,-155.53 76.62,-39.47 162.97,-58.97 258.15,-58.97 98.43,0 182.47,15.32 252.58,46.43 69.65,30.65 126.75,72.9 170.39,126.29 41.79,50.61 72.9,110.49 93.33,179.21 20.43,68.72 30.65,143.46 30.65,224.26l0 89.61 -891.44 0c0,88.22 8.36,168.07 25.54,239.57 16.71,71.51 43.18,134.65 79.86,189.44 35.29,52.46 82.18,93.79 139.29,124.42 57.57,30.18 125.81,45.5 205.21,45.5 81.26,0 151.36,-19.03 209.86,-57.11 58.97,-37.61 115.61,-105.85 170.4,-204.75l94.72 58.5zm-303.64 -509.78c0,-50.61 -4.18,-104.93 -13.01,-162.5 -8.35,-58.04 -22.28,-106.32 -41.32,-144.86 -20.89,-41.79 -49.68,-75.68 -85.9,-101.67 -36.21,-26.47 -83.11,-39.47 -140.21,-39.47 -95.64,0 -175.04,39.47 -237.72,118.39 -63.15,79.4 -97.5,188.96 -103.07,330.11l621.23 0zm2438.9 142.53c0,94.26 -14.85,186.65 -45.03,277.65 -29.72,91.01 -72.44,168.07 -128.15,231.68 -62.68,72.44 -135.1,126.29 -217.75,161.58 -82.65,35.28 -175.5,52.93 -278.11,52.93 -85.44,0 -166.68,-16.25 -243.76,-48.29 -77.08,-32.04 -145.78,-78.93 -205.68,-140.68 -58.97,-60.36 -106.32,-134.64 -141.14,-221.93 -34.83,-87.29 -52.47,-185.25 -52.47,-293.89 0,-209.4 61.29,-380.26 183.39,-513.5 122.11,-133.25 282.3,-199.65 480.08,-199.65 188.03,0 343.11,63.15 465.22,189.43 122.1,126.28 183.39,294.36 183.39,504.68zm-281.36 2.79c0,-68.26 -6.97,-139.75 -20.43,-215.44 -13.93,-75.68 -34.36,-139.74 -61.29,-192.21 -29.25,-56.18 -67.33,-101.21 -114.68,-135.11 -47.36,-33.89 -105.39,-51.07 -173.64,-51.07 -70.11,0 -129.53,17.18 -179.22,51.54 -49.68,34.36 -90.07,81.72 -120.71,141.14 -29.25,55.25 -49.68,118.39 -61.75,188.97 -11.61,70.57 -17.64,139.28 -17.64,205.21 0,86.83 6.96,167.15 21.35,240.97 13.93,73.83 36.22,139.75 67.33,197.79 31.11,58.04 70.11,103.53 116.53,136.5 46.9,32.97 104.93,49.68 174.11,49.68 113.75,0 203.82,-54.79 270.22,-164.36 66.4,-109.57 99.82,-260.93 99.82,-453.61zm1473.65 -1263.33c0,40.86 -10.68,75.22 -32.5,103.53 -21.82,28.32 -55.25,42.25 -99.35,42.25 -28.33,0 -52.94,-6.04 -74.3,-17.64 -21.35,-12.08 -41.32,-27.86 -59.43,-47.83 -18.11,-19.96 -34.82,-42.71 -50.14,-68.25 -15.79,-25.54 -28.79,-45.97 -39.47,-61.29 -60.83,2.78 -108.18,45.04 -141.14,126.75 -32.97,81.72 -49.68,212.18 -49.68,390.93l0 136.96 345.43 0 0 130.93 -345.43 0 0 964.33c0,32.04 6.03,58.04 18.1,78.01 12.54,19.96 31.58,34.82 58.04,44.57 21.36,8.36 50.61,14.86 86.37,19.97 36.21,5.1 67.79,8.35 93.79,10.21l0 89.15 -710.36 0 0 -89.15c20.89,-1.86 42.71,-3.71 65,-5.57 22.29,-1.86 41.32,-5.57 57.58,-10.68 25.53,-8.36 44.57,-22.75 56.64,-43.18 12.54,-20.43 18.57,-46.9 18.57,-79.4l0 -978.26 -264.65 0 0 -130.93 264.65 0 0 -85.43c0,-203.36 52.94,-368.18 159.25,-494.47 106.32,-125.82 239.12,-188.96 398.37,-188.96 81.25,0 142.07,15.78 183.39,47.82 40.86,31.57 61.29,70.11 61.29,115.61zm-7976.5 4429.02l-802.3 0 0 -97.5c71.04,-4.64 129.54,-13.46 176.43,-27.39 46.43,-13.47 69.65,-30.18 69.65,-50.15 0,-8.35 -0.47,-18.11 -2.32,-29.71 -1.86,-12.08 -4.65,-22.29 -8.36,-31.58l-159.72 -432.25 -677.39 0c-25.54,63.61 -45.97,118.85 -62.22,165.75 -15.79,47.36 -30.18,90.54 -42.72,130.46 -11.6,39 -19.96,71.04 -24.6,95.17 -4.65,24.61 -6.97,44.58 -6.97,59.9 0,36.22 28.79,64.54 85.9,84.51 57.11,19.96 121.64,31.57 193.14,35.28l0 97.5 -727.54 0 0 -97.5c23.68,-1.85 52.93,-6.96 88.69,-15.78 35.28,-8.36 64.07,-19.97 86.82,-34.36 36.22,-24.61 64.54,-50.15 84.51,-77.08 19.96,-26.93 39.47,-63.61 58.5,-110.96 97.03,-241.9 203.83,-513.97 320.82,-816.23 117,-301.78 221.47,-570.61 312.93,-806.47l109.11 0 643.51 1664.94c13.46,35.29 28.78,64.08 45.96,85.9 17.18,21.82 41.33,42.72 72.44,63.61 20.43,13 47.82,23.68 81.25,32.04 33.9,8.82 61.76,13.47 84.51,14.39l0 97.5zm-775.83 -788.37l-292.97 -749.83 -288.32 749.83 581.3 0zm2276.88 763.3l-469.87 30.64 -20.43 -19.04 0 -124.42 -11.14 -2.79c-46.9,52.93 -105.39,95.64 -174.57,129.54 -69.19,33.43 -140.68,50.14 -214.04,50.14 -76.15,0 -149.97,-17.18 -221.01,-51.07 -71.5,-33.9 -133.24,-81.72 -185.71,-143.47 -53.4,-62.21 -96.1,-137.42 -127.21,-225.64 -31.11,-87.76 -46.9,-184.79 -46.9,-290.64 0,-97.04 16.72,-188.97 50.15,-276.26 33.89,-86.83 79.86,-162.97 138.82,-228.43 55.25,-60.37 123.03,-109.11 203.36,-145.32 80.32,-36.22 162.03,-54.33 245.61,-54.33 62.22,0 123.96,7.89 184.32,23.68 59.9,15.79 111.89,36.22 155.54,60.36l0 -468.47c0,-38.54 -6.5,-73.36 -19.04,-104.93 -13,-31.11 -30.64,-55.25 -53.4,-71.5 -25.07,-17.65 -59.43,-29.72 -102.6,-37.61 -43.18,-7.9 -89.61,-13.47 -139.75,-17.18l0 -83.58 550.65 -30.64 20.43 20.43 0 1808.4c0,31.58 6.04,58.51 18.57,80.79 12.07,22.29 30.18,40.86 53.4,56.19 17.18,11.14 42.25,17.64 75.22,20.43 32.5,2.78 62.22,4.64 89.61,5.57l0 89.15zm-493.07 -235.4l0 -783.26c-7.43,-23.68 -19.04,-48.75 -35.29,-76.15 -16.72,-26.93 -37.15,-52 -61.75,-74.75 -26.47,-22.29 -57.11,-41.33 -92.87,-56.18 -35.29,-14.86 -76.61,-22.29 -123.96,-22.29 -54.79,0 -104.92,13.93 -150.89,42.25 -46.43,27.86 -86.83,68.26 -122.57,120.71 -33.43,50.61 -60.36,115.14 -79.86,193.15 -19.5,78.47 -29.25,164.82 -29.25,260 0,76.15 7.42,144.86 21.82,207.08 14.39,61.75 39,119.78 73.82,173.18 32.04,50.61 72.44,91 122.11,122.1 49.68,30.65 108.64,45.97 176.89,45.97 72.9,0 133.25,-15.79 181.08,-47.36 47.82,-32.04 87.75,-66.86 120.71,-104.46zm1950.49 -997.3c-40.86,7.43 -79.4,22.29 -116.07,44.57 -37.14,21.83 -68.25,61.29 -94.72,117.47 -53.4,121.17 -109.1,247.93 -166.21,379.32 -57.11,131.86 -116.07,270.22 -177.83,415.08 -18.1,41.79 -37.61,91.01 -58.04,148.11 -20.43,57.11 -39,111.89 -56.18,164.35l-106.32 0c-85.89,-212.64 -165.28,-406.72 -238.18,-582.22 -72.43,-175.03 -147.64,-354.71 -225.65,-538.57 -18.11,-41.33 -47.36,-73.83 -87.75,-97.03 -40.4,-23.22 -80.79,-37.61 -121.64,-44.11l0 -89.15 620.76 0 0 94.72c-27.4,0.93 -61.29,6.5 -102.14,16.71 -40.86,10.68 -61.29,24.61 -61.29,42.72 0,2.79 2.32,9.75 6.96,20.89 4.65,11.61 9.29,24.15 13.47,39.01 37.14,91.47 90.07,219.61 157.85,383.96 67.79,164.36 123.04,297.15 165.75,397.44 32.51,-77.08 73.83,-173.18 123.04,-288.32 49.22,-114.68 102.14,-243.29 159.25,-385.36 9.28,-24.15 17.64,-46.9 26,-67.79 7.89,-21.36 12.07,-42.72 12.07,-64.54 0,-15.32 -7.43,-29.25 -22.29,-41.33 -15.32,-12.07 -32.96,-22.75 -53.86,-32.03 -20.89,-8.83 -41.32,-15.79 -61.29,-19.97 -19.96,-4.64 -36.21,-7.89 -48.75,-9.75l0 -86.36 513.04 0 0 82.18zm1249.4 942.97c-56.19,106.79 -131.86,192.22 -226.58,255.83 -94.25,63.61 -203.36,95.18 -325.93,95.18 -108.17,0 -202.89,-19.04 -284.61,-57.11 -81.26,-38.08 -148.11,-89.62 -201.04,-154.61 -52.93,-65.47 -91.94,-141.61 -117.93,-228.43 -26,-86.83 -39,-178.76 -39,-275.33 0,-87.29 13.93,-172.72 41.79,-256.29 27.39,-83.58 68.25,-159.25 121.64,-226.12 52,-64.07 116.07,-116.06 193.14,-155.53 76.62,-39.47 162.97,-58.97 258.15,-58.97 98.43,0 182.47,15.32 252.58,46.43 69.65,30.65 126.75,72.9 170.39,126.29 41.79,50.61 72.9,110.49 93.33,179.21 20.43,68.72 30.65,143.46 30.65,224.26l0 89.61 -891.44 0c0,88.22 8.36,168.07 25.54,239.57 16.71,71.51 43.18,134.65 79.86,189.44 35.29,52.46 82.18,93.79 139.29,124.42 57.57,30.18 125.81,45.5 205.21,45.5 81.26,0 151.36,-19.03 209.86,-57.11 58.97,-37.61 115.61,-105.85 170.4,-204.75l94.72 58.5zm-303.64 -509.78c0,-50.61 -4.18,-104.93 -13.01,-162.5 -8.35,-58.04 -22.28,-106.32 -41.32,-144.86 -20.89,-41.79 -49.68,-75.68 -85.9,-101.67 -36.21,-26.47 -83.11,-39.47 -140.21,-39.47 -95.64,0 -175.04,39.47 -237.72,118.39 -63.15,79.4 -97.5,188.96 -103.07,330.11l621.23 0zm1942.59 824.58l-660.23 0 0 -89.15c20.89,-1.86 44.11,-3.71 68.72,-5.57 25.07,-1.86 45.97,-5.11 62.22,-10.68 25.53,-8.36 44.57,-22.29 56.64,-42.72 12.54,-20.43 18.58,-46.89 18.58,-79.86l0 -689c0,-95.18 -22.29,-168.54 -66.87,-220.08 -45.03,-51.54 -99.35,-77.54 -163.42,-77.54 -47.83,0 -91.47,7.43 -130.93,22.29 -39.93,14.86 -75.22,33.43 -105.86,55.25 -29.71,20.9 -53.39,43.18 -71.04,67.33 -17.64,23.68 -30.18,43.18 -38.53,57.57l0 770.73c0,30.64 6.5,56.18 19.03,76.14 12.54,19.97 31.58,35.29 57.11,46.44 18.58,8.82 39.47,15.78 61.29,20.43 22.29,4.17 45.04,7.42 68.72,9.28l0 89.15 -660.22 0 0 -89.15c20.89,-1.86 42.71,-3.71 65,-5.57 22.29,-1.86 41.32,-5.11 57.58,-10.68 25.53,-8.36 44.57,-22.29 56.64,-42.72 12.54,-20.43 18.57,-46.89 18.57,-79.39l0 -827.37c0,-30.65 -6.5,-58.97 -19.5,-84.97 -13.46,-25.54 -31.57,-46.9 -55.25,-63.15 -17.18,-10.68 -37.61,-18.57 -60.83,-23.68 -23.68,-5.11 -49.21,-8.36 -76.14,-10.22l0 -89.14 448.97 -30.65 19.04 19.04 0 189.89 6.96 0c21.36,-21.82 48.75,-47.82 81.26,-78.47 32.5,-30.18 63.14,-54.79 91.93,-73.82 33.43,-21.82 73.36,-39.93 119.32,-54.33 45.97,-14.39 97.96,-21.82 155.53,-21.82 128.15,0 223.33,39.93 285.08,120.25 61.76,80.32 92.87,186.64 92.87,319.89l0 697.36c0,31.58 5.57,57.11 16.71,76.61 11.15,19.51 29.72,34.83 56.65,45.51 22.29,9.28 41.32,15.78 57.57,19.03 15.79,3.72 38.08,6.5 66.87,8.36l0 89.15zm988.48 -58.04c-58.97,24.15 -114.68,44.57 -167.15,61.29 -52.47,16.25 -117,24.61 -192.68,24.61 -112.35,0 -191.75,-28.32 -237.25,-84.97 -45.97,-56.65 -68.72,-136.96 -68.72,-240.04l0 -909.08 -242.36 0 0 -130.93 247.93 0 0 -417.86 247.93 0 0 417.86 384.44 0 0 130.93 -381.65 0 0 751.69c0,56.64 1.86,103.53 6.04,141.6 4.17,37.61 13.93,70.58 29.25,98.89 14.39,26 36.21,46.43 65,59.9 28.79,13.46 67.79,20.43 116.53,20.43 22.76,0 56.19,-2.32 99.82,-6.5 43.65,-4.18 74.76,-9.29 92.87,-15.79l0 97.96zm1571.63 32.97l-439.23 30.64 -20.43 -19.04 0 -169.92 -8.35 0c-21.36,22.75 -45.97,46.89 -72.9,72.43 -26.93,26 -58.04,49.22 -93.33,70.11 -40.86,24.61 -79.86,43.18 -117.92,55.72 -37.61,12.53 -91.47,18.57 -161.11,18.57 -117.93,0 -208.01,-38.54 -269.76,-116.07 -61.75,-77.54 -92.86,-190.36 -92.86,-338l0 -642.12c0,-32.5 -6.04,-59.89 -18.57,-82.18 -12.08,-22.29 -30.19,-41.79 -53.87,-58.04 -16.25,-10.68 -36.68,-18.57 -61.28,-23.68 -24.61,-5.11 -50.62,-8.36 -78.01,-10.22l0 -89.14 447.58 -30.65 20.43 19.04 0 931.36c0,96.57 21.82,169.47 65,218.69 43.19,48.75 95.18,73.36 155.54,73.36 49.68,0 93.79,-7.89 132.32,-23.22 39,-15.32 71.5,-33.43 97.5,-54.32 24.14,-19.04 45.5,-39.47 64.07,-60.83 18.57,-20.89 32.97,-40.86 42.72,-58.97l0 -760.5c0,-30.18 -6.5,-56.65 -19.04,-79.87 -13,-23.21 -30.64,-42.71 -53.4,-58.96 -16.25,-11.15 -40.39,-17.65 -72.89,-19.97 -32.04,-2.32 -68.26,-4.18 -108.18,-6.04l0 -89.14 489.36 -30.65 20.43 19.04 0 1063.22c0,30.64 6.5,57.11 19.04,78.93 13,21.36 30.64,39.93 53.39,55.26 16.25,10.21 35.75,16.71 58.51,19.96 22.75,3.25 47.82,5.11 75.22,6.04l0 89.15zm1192.76 -1145.87c0,45.96 -11.14,86.82 -33.9,122.57 -22.75,35.75 -57.57,53.86 -104.92,53.86 -50.61,0 -89.61,-13 -116.53,-39.01 -26.47,-26.46 -39.93,-55.25 -39.93,-86.82 0,-19.5 1.39,-37.61 4.64,-53.86 3.25,-16.25 6.03,-32.5 8.82,-48.76 -42.25,0 -91.47,17.18 -148.11,51.54 -56.64,34.36 -104.46,83.58 -143.92,146.72l0 782.79c0,32.04 6.03,57.58 18.1,77.54 12.54,20.43 31.58,35.29 58.04,45.04 22.29,9.29 51.54,16.25 87.3,20.43 35.75,4.64 66.86,7.89 92.86,9.75l0 89.15 -710.36 0 0 -89.15c20.89,-1.86 42.71,-3.71 65,-5.57 22.29,-1.86 41.32,-5.11 57.58,-10.68 25.53,-8.36 44.57,-22.29 56.64,-42.72 12.54,-20.43 18.57,-46.89 18.57,-79.39l0 -827.37c0,-27.86 -6.5,-55.72 -19.5,-82.65 -13.46,-27.4 -31.57,-49.22 -55.25,-65.47 -17.18,-10.68 -37.61,-18.57 -60.83,-23.68 -23.68,-5.11 -49.21,-8.36 -76.14,-10.22l0 -89.14 448.97 -30.65 19.04 18.57 0 186.65 6.96 0c55.72,-73.36 117.93,-129.54 186.65,-167.61 68.71,-38.07 131.39,-57.11 188.03,-57.11 57.11,0 103.07,18.57 138.82,55.72 35.76,37.14 53.4,86.83 53.4,149.5zm1305.59 856.14c-56.19,106.79 -131.86,192.22 -226.58,255.83 -94.25,63.61 -203.36,95.18 -325.93,95.18 -108.17,0 -202.89,-19.04 -284.61,-57.11 -81.26,-38.08 -148.11,-89.62 -201.04,-154.61 -52.93,-65.47 -91.94,-141.61 -117.93,-228.43 -26,-86.83 -39,-178.76 -39,-275.33 0,-87.29 13.93,-172.72 41.79,-256.29 27.39,-83.58 68.25,-159.25 121.64,-226.12 52,-64.07 116.07,-116.06 193.14,-155.53 76.62,-39.47 162.97,-58.97 258.15,-58.97 98.43,0 182.47,15.32 252.58,46.43 69.65,30.65 126.75,72.9 170.39,126.29 41.79,50.61 72.9,110.49 93.33,179.21 20.43,68.72 30.65,143.46 30.65,224.26l0 89.61 -891.44 0c0,88.22 8.36,168.07 25.54,239.57 16.71,71.51 43.18,134.65 79.86,189.44 35.29,52.46 82.18,93.79 139.29,124.42 57.57,30.18 125.81,45.5 205.21,45.5 81.26,0 151.36,-19.03 209.86,-57.11 58.97,-37.61 115.61,-105.85 170.4,-204.75l94.72 58.5zm-303.64 -509.78c0,-50.61 -4.18,-104.93 -13.01,-162.5 -8.35,-58.04 -22.28,-106.32 -41.32,-144.86 -20.89,-41.79 -49.68,-75.68 -85.9,-101.67 -36.21,-26.47 -83.11,-39.47 -140.21,-39.47 -95.64,0 -175.04,39.47 -237.72,118.39 -63.15,79.4 -97.5,188.96 -103.07,330.11l621.23 0z"/>
    <path id="_1" class="fil1" d="M9177 3183.51l-94.72 0c-8.36,-32.51 -22.75,-71.51 -44.11,-116.54 -21.36,-44.57 -45.04,-87.29 -71.51,-127.21 -27.39,-41.79 -57.11,-78 -89.14,-109.57 -32.51,-31.11 -63.62,-49.22 -93.33,-53.86 -28.32,-3.25 -63.61,-6.03 -106.32,-7.89 -42.72,-1.86 -82.18,-2.79 -118.39,-2.79l-78.93 0 0 1543.77c0,29.72 6.5,57.11 19.03,82.18 12.54,25.08 34.83,44.11 66.4,57.58 16.25,6.5 50.61,14.86 102.6,26 52.01,10.68 92.4,16.72 121.18,17.64l0 97.5 -910.94 0 0 -97.5c25.54,-1.85 64.08,-5.57 116.54,-10.68 52,-5.57 88.22,-12.53 108.17,-20.43 30.18,-12.07 52.01,-28.78 66.4,-51.07 13.93,-22.29 20.89,-52 20.89,-89.15l0 -1555.84 -78.93 0c-28.32,0 -63.15,0.47 -104.93,1.86 -41.78,1.39 -81.71,4.64 -119.78,8.82 -29.71,3.72 -60.82,21.82 -93.33,53.86 -32.03,32.5 -61.75,68.72 -89.14,109.57 -26.93,40.86 -51.08,84.51 -71.97,130 -20.9,45.97 -35.29,83.58 -43.65,113.75l-94.72 0 0 -523.72 1682.59 0 0 523.72zm1391.95 1382.66c-43.18,15.78 -80.79,28.32 -113.28,37.61 -32.51,9.75 -69.19,14.39 -110.5,14.39 -71.51,0 -128.61,-16.72 -170.86,-49.68 -42.72,-32.97 -70.11,-81.26 -81.72,-144.86l-8.36 0c-58.5,65.47 -121.64,115.14 -188.96,149.04 -67.33,33.89 -148.57,51.07 -243.76,51.07 -100.28,0 -182.93,-30.64 -247.47,-92.4 -64.54,-61.29 -97.03,-142.07 -97.03,-241.43 0,-51.54 7.43,-97.5 21.82,-138.36 14.4,-40.86 36.22,-77.54 65.47,-110.03 22.75,-26.93 52.47,-51.07 89.61,-72.43 37.15,-21.36 72.44,-38.08 104.93,-51.08 40.86,-15.32 123.5,-43.64 248.4,-85.43 124.89,-41.33 208.93,-73.83 252.57,-97.5l0 -133.71c0,-12.07 -2.32,-34.36 -7.42,-67.79 -5.11,-33.43 -15.79,-65.01 -32.04,-94.72 -18.57,-33.43 -44.11,-62.22 -77.54,-87.29 -33.43,-24.61 -80.79,-37.15 -142.07,-37.15 -41.79,0 -80.79,6.97 -117,20.9 -35.75,13.93 -61.29,28.78 -75.68,44.11 0,18.1 4.18,44.57 12.53,79.86 8.82,34.82 13,67.32 13,97.03 0,31.57 -14.39,60.36 -42.71,86.83 -28.33,26 -67.79,39 -118.39,39 -45.04,0 -78.47,-16.25 -99.36,-48.29 -21.36,-32.04 -32.03,-67.79 -32.03,-107.71 0,-41.79 14.85,-81.26 44.11,-119.32 29.71,-38.07 68.25,-71.97 115.6,-101.67 40.86,-25.54 90.08,-46.9 148.57,-64.54 58.04,-17.65 114.68,-26.47 170.39,-26.47 76.15,0 143,5.11 199.65,15.79 57.11,10.21 108.64,32.5 155.07,66.86 45.97,33.43 81.26,78.93 105.39,136.5 24.14,57.57 36.22,131.39 36.22,221.93 0,129.07 -1.4,243.75 -4.18,344.04 -2.79,99.81 -4.18,208.93 -4.18,327.78 0,35.29 6.04,63.15 18.57,84.04 12.07,20.9 31.11,38.54 56.65,52.94 13.93,7.89 35.29,12.53 65,13.46 29.72,0.93 59.9,1.39 91.01,1.39l0 87.3zm-476.36 -716.87c-77.54,22.75 -145.78,45.04 -204.29,66.4 -58.5,21.82 -112.82,49.22 -162.96,81.72 -45.97,31.11 -81.72,67.33 -108.18,109.57 -26.46,42.25 -39.93,92.4 -39.93,150.43 0,75.22 19.97,130.46 59.43,165.75 39.47,35.28 89.62,52.93 150.43,52.93 64.54,0 121.18,-15.79 170.4,-46.9 49.21,-31.11 90.54,-68.25 123.96,-110.96l11.14 -468.94zm1491.76 85.9c37.15,32.5 65.47,70.11 85.43,112.82 19.97,42.72 29.72,94.72 29.72,156 0,123.96 -46.43,225.65 -138.82,304.57 -92.4,78.47 -212.18,117.93 -359.36,117.93 -78,0 -149.5,-14.4 -214.97,-43.18 -65.47,-28.79 -111.89,-55.26 -140.21,-78.94l-26.93 88.69 -103.07 0 -13.93 -465.23 94.72 0c7.43,35.75 22.75,77.08 45.97,124.43 23.68,47.36 52,90.54 84.97,128.6 35.29,40.4 77.54,74.29 126.75,101.68 49.21,27.39 104.46,40.86 165.75,40.86 86.36,0 153.21,-19.97 200.11,-59.43 46.89,-39.47 70.11,-96.57 70.11,-170.4 0,-38.07 -7.43,-70.57 -22.29,-98.42 -14.86,-27.4 -36.68,-51.54 -65.47,-72.44 -29.71,-20.89 -66.39,-39.93 -109.56,-56.64 -43.65,-16.72 -91.94,-32.97 -144.86,-49.22 -42.25,-13 -89.61,-30.18 -141.61,-52.47 -51.54,-22.28 -96.1,-48.29 -133.25,-78 -39.46,-31.57 -71.96,-70.58 -97.03,-117 -25.53,-45.97 -38.07,-100.28 -38.07,-162.96 0,-109.57 40.86,-201.97 122.1,-278.12 81.26,-76.15 190.36,-114.21 326.86,-114.21 52.47,0 105.86,6.97 160.64,20.43 54.79,13.47 99.36,29.72 133.72,48.75l31.11 -74.75 97.49 0 19.5 431.79 -94.72 0c-19.03,-95.64 -59.43,-173.18 -122.1,-233.07 -62.22,-59.9 -138.36,-90.08 -228.43,-90.08 -73.83,0 -131.86,18.57 -174.11,56.18 -42.26,37.15 -63.15,82.65 -63.15,135.57 0,40.4 6.97,74.76 20.89,101.68 13.93,27.39 34.83,50.14 63.15,69.18 26.93,18.11 60.83,35.29 102.14,51.07 40.86,15.79 91.47,33.9 151.82,53.4 59.9,19.04 116.07,41.32 168.54,66.86 52.93,25.07 96.57,53.4 130.46,84.04zm1146.34 597.08c-58.97,24.15 -114.68,44.57 -167.15,61.29 -52.47,16.25 -117,24.61 -192.68,24.61 -112.35,0 -191.75,-28.32 -237.25,-84.97 -45.97,-56.65 -68.72,-136.96 -68.72,-240.04l0 -909.08 -242.36 0 0 -130.93 247.93 0 0 -417.86 247.93 0 0 417.86 384.44 0 0 130.93 -381.65 0 0 751.69c0,56.64 1.86,103.53 6.04,141.6 4.17,37.61 13.93,70.58 29.25,98.89 14.39,26 36.21,46.43 65,59.9 28.79,13.46 67.79,20.43 116.53,20.43 22.76,0 56.19,-2.32 99.82,-6.5 43.65,-4.18 74.76,-9.29 92.87,-15.79l0 97.96zm1326.48 -256.76c-56.19,106.79 -131.86,192.22 -226.58,255.83 -94.25,63.61 -203.36,95.18 -325.93,95.18 -108.17,0 -202.89,-19.04 -284.61,-57.11 -81.26,-38.08 -148.11,-89.62 -201.04,-154.61 -52.93,-65.47 -91.94,-141.61 -117.93,-228.43 -26,-86.83 -39,-178.76 -39,-275.33 0,-87.29 13.93,-172.72 41.79,-256.29 27.39,-83.58 68.25,-159.25 121.64,-226.12 52,-64.07 116.07,-116.06 193.14,-155.53 76.62,-39.47 162.97,-58.97 258.15,-58.97 98.43,0 182.47,15.32 252.58,46.43 69.65,30.65 126.75,72.9 170.39,126.29 41.79,50.61 72.9,110.49 93.33,179.21 20.43,68.72 30.65,143.46 30.65,224.26l0 89.61 -891.44 0c0,88.22 8.36,168.07 25.54,239.57 16.71,71.51 43.18,134.65 79.86,189.44 35.29,52.46 82.18,93.79 139.29,124.42 57.57,30.18 125.81,45.5 205.21,45.5 81.26,0 151.36,-19.03 209.86,-57.11 58.97,-37.61 115.61,-105.85 170.4,-204.75l94.72 58.5zm-303.64 -509.78c0,-50.61 -4.18,-104.93 -13.01,-162.5 -8.35,-58.04 -22.28,-106.32 -41.32,-144.86 -20.89,-41.79 -49.68,-75.68 -85.9,-101.67 -36.21,-26.47 -83.11,-39.47 -140.21,-39.47 -95.64,0 -175.04,39.47 -237.72,118.39 -63.15,79.4 -97.5,188.96 -103.07,330.11l621.23 0zm2438.9 142.53c0,94.26 -14.85,186.65 -45.03,277.65 -29.72,91.01 -72.44,168.07 -128.15,231.68 -62.68,72.44 -135.1,126.29 -217.75,161.58 -82.65,35.28 -175.5,52.93 -278.11,52.93 -85.44,0 -166.68,-16.25 -243.76,-48.29 -77.08,-32.04 -145.78,-78.93 -205.68,-140.68 -58.97,-60.36 -106.32,-134.64 -141.14,-221.93 -34.83,-87.29 -52.47,-185.25 -52.47,-293.89 0,-209.4 61.29,-380.26 183.39,-513.5 122.11,-133.25 282.3,-199.65 480.08,-199.65 188.03,0 343.11,63.15 465.22,189.43 122.1,126.28 183.39,294.36 183.39,504.68zm-281.36 2.79c0,-68.26 -6.97,-139.75 -20.43,-215.44 -13.93,-75.68 -34.36,-139.74 -61.29,-192.21 -29.25,-56.18 -67.33,-101.21 -114.68,-135.11 -47.36,-33.89 -105.39,-51.07 -173.64,-51.07 -70.11,0 -129.53,17.18 -179.22,51.54 -49.68,34.36 -90.07,81.72 -120.71,141.14 -29.25,55.25 -49.68,118.39 -61.75,188.97 -11.61,70.57 -17.64,139.28 -17.64,205.21 0,86.83 6.96,167.15 21.35,240.97 13.93,73.83 36.22,139.75 67.33,197.79 31.11,58.04 70.11,103.53 116.53,136.5 46.9,32.97 104.93,49.68 174.11,49.68 113.75,0 203.82,-54.79 270.22,-164.36 66.4,-109.57 99.82,-260.93 99.82,-453.61zm1473.65 -1263.33c0,40.86 -10.68,75.22 -32.5,103.53 -21.82,28.32 -55.25,42.25 -99.35,42.25 -28.33,0 -52.94,-6.04 -74.3,-17.64 -21.35,-12.08 -41.32,-27.86 -59.43,-47.83 -18.11,-19.96 -34.82,-42.71 -50.14,-68.25 -15.79,-25.54 -28.79,-45.97 -39.47,-61.29 -60.83,2.78 -108.18,45.04 -141.14,126.75 -32.97,81.72 -49.68,212.18 -49.68,390.93l0 136.96 345.43 0 0 130.93 -345.43 0 0 964.33c0,32.04 6.03,58.04 18.1,78.01 12.54,19.96 31.58,34.82 58.04,44.57 21.36,8.36 50.61,14.86 86.37,19.97 36.21,5.1 67.79,8.35 93.79,10.21l0 89.15 -710.36 0 0 -89.15c20.89,-1.86 42.71,-3.71 65,-5.57 22.29,-1.86 41.32,-5.57 57.58,-10.68 25.53,-8.36 44.57,-22.75 56.64,-43.18 12.54,-20.43 18.57,-46.9 18.57,-79.4l0 -978.26 -264.65 0 0 -130.93 264.65 0 0 -85.43c0,-203.36 52.94,-368.18 159.25,-494.47 106.32,-125.82 239.12,-188.96 398.37,-188.96 81.25,0 142.07,15.78 183.39,47.82 40.86,31.57 61.29,70.11 61.29,115.61zm-7976.5 4429.02l-802.3 0 0 -97.5c71.04,-4.64 129.54,-13.46 176.43,-27.39 46.43,-13.47 69.65,-30.18 69.65,-50.15 0,-8.35 -0.47,-18.11 -2.32,-29.71 -1.86,-12.08 -4.65,-22.29 -8.36,-31.58l-159.72 -432.25 -677.39 0c-25.54,63.61 -45.97,118.85 -62.22,165.75 -15.79,47.36 -30.18,90.54 -42.72,130.46 -11.6,39 -19.96,71.04 -24.6,95.17 -4.65,24.61 -6.97,44.58 -6.97,59.9 0,36.22 28.79,64.54 85.9,84.51 57.11,19.96 121.64,31.57 193.14,35.28l0 97.5 -727.54 0 0 -97.5c23.68,-1.85 52.93,-6.96 88.69,-15.78 35.28,-8.36 64.07,-19.97 86.82,-34.36 36.22,-24.61 64.54,-50.15 84.51,-77.08 19.96,-26.93 39.47,-63.61 58.5,-110.96 97.03,-241.9 203.83,-513.97 320.82,-816.23 117,-301.78 221.47,-570.61 312.93,-806.47l109.11 0 643.51 1664.94c13.46,35.29 28.78,64.08 45.96,85.9 17.18,21.82 41.33,42.72 72.44,63.61 20.43,13 47.82,23.68 81.25,32.04 33.9,8.82 61.76,13.47 84.51,14.39l0 97.5zm-775.83 -788.37l-292.97 -749.83 -288.32 749.83 581.3 0zm2276.88 763.3l-469.87 30.64 -20.43 -19.04 0 -124.42 -11.14 -2.79c-46.9,52.93 -105.39,95.64 -174.57,129.54 -69.19,33.43 -140.68,50.14 -214.04,50.14 -76.15,0 -149.97,-17.18 -221.01,-51.07 -71.5,-33.9 -133.24,-81.72 -185.71,-143.47 -53.4,-62.21 -96.1,-137.42 -127.21,-225.64 -31.11,-87.76 -46.9,-184.79 -46.9,-290.64 0,-97.04 16.72,-188.97 50.15,-276.26 33.89,-86.83 79.86,-162.97 138.82,-228.43 55.25,-60.37 123.03,-109.11 203.36,-145.32 80.32,-36.22 162.03,-54.33 245.61,-54.33 62.22,0 123.96,7.89 184.32,23.68 59.9,15.79 111.89,36.22 155.54,60.36l0 -468.47c0,-38.54 -6.5,-73.36 -19.04,-104.93 -13,-31.11 -30.64,-55.25 -53.4,-71.5 -25.07,-17.65 -59.43,-29.72 -102.6,-37.61 -43.18,-7.9 -89.61,-13.47 -139.75,-17.18l0 -83.58 550.65 -30.64 20.43 20.43 0 1808.4c0,31.58 6.04,58.51 18.57,80.79 12.07,22.29 30.18,40.86 53.4,56.19 17.18,11.14 42.25,17.64 75.22,20.43 32.5,2.78 62.22,4.64 89.61,5.57l0 89.15zm-493.07 -235.4l0 -783.26c-7.43,-23.68 -19.04,-48.75 -35.29,-76.15 -16.72,-26.93 -37.15,-52 -61.75,-74.75 -26.47,-22.29 -57.11,-41.33 -92.87,-56.18 -35.29,-14.86 -76.61,-22.29 -123.96,-22.29 -54.79,0 -104.92,13.93 -150.89,42.25 -46.43,27.86 -86.83,68.26 -122.57,120.71 -33.43,50.61 -60.36,115.14 -79.86,193.15 -19.5,78.47 -29.25,164.82 -29.25,260 0,76.15 7.42,144.86 21.82,207.08 14.39,61.75 39,119.78 73.82,173.18 32.04,50.61 72.44,91 122.11,122.1 49.68,30.65 108.64,45.97 176.89,45.97 72.9,0 133.25,-15.79 181.08,-47.36 47.82,-32.04 87.75,-66.86 120.71,-104.46zm1950.49 -997.3c-40.86,7.43 -79.4,22.29 -116.07,44.57 -37.14,21.83 -68.25,61.29 -94.72,117.47 -53.4,121.17 -109.1,247.93 -166.21,379.32 -57.11,131.86 -116.07,270.22 -177.83,415.08 -18.1,41.79 -37.61,91.01 -58.04,148.11 -20.43,57.11 -39,111.89 -56.18,164.35l-106.32 0c-85.89,-212.64 -165.28,-406.72 -238.18,-582.22 -72.43,-175.03 -147.64,-354.71 -225.65,-538.57 -18.11,-41.33 -47.36,-73.83 -87.75,-97.03 -40.4,-23.22 -80.79,-37.61 -121.64,-44.11l0 -89.15 620.76 0 0 94.72c-27.4,0.93 -61.29,6.5 -102.14,16.71 -40.86,10.68 -61.29,24.61 -61.29,42.72 0,2.79 2.32,9.75 6.96,20.89 4.65,11.61 9.29,24.15 13.47,39.01 37.14,91.47 90.07,219.61 157.85,383.96 67.79,164.36 123.04,297.15 165.75,397.44 32.51,-77.08 73.83,-173.18 123.04,-288.32 49.22,-114.68 102.14,-243.29 159.25,-385.36 9.28,-24.15 17.64,-46.9 26,-67.79 7.89,-21.36 12.07,-42.72 12.07,-64.54 0,-15.32 -7.43,-29.25 -22.29,-41.33 -15.32,-12.07 -32.96,-22.75 -53.86,-32.03 -20.89,-8.83 -41.32,-15.79 -61.29,-19.97 -19.96,-4.64 -36.21,-7.89 -48.75,-9.75l0 -86.36 513.04 0 0 82.18zm1249.4 942.97c-56.19,106.79 -131.86,192.22 -226.58,255.83 -94.25,63.61 -203.36,95.18 -325.93,95.18 -108.17,0 -202.89,-19.04 -284.61,-57.11 -81.26,-38.08 -148.11,-89.62 -201.04,-154.61 -52.93,-65.47 -91.94,-141.61 -117.93,-228.43 -26,-86.83 -39,-178.76 -39,-275.33 0,-87.29 13.93,-172.72 41.79,-256.29 27.39,-83.58 68.25,-159.25 121.64,-226.12 52,-64.07 116.07,-116.06 193.14,-155.53 76.62,-39.47 162.97,-58.97 258.15,-58.97 98.43,0 182.47,15.32 252.58,46.43 69.65,30.65 126.75,72.9 170.39,126.29 41.79,50.61 72.9,110.49 93.33,179.21 20.43,68.72 30.65,143.46 30.65,224.26l0 89.61 -891.44 0c0,88.22 8.36,168.07 25.54,239.57 16.71,71.51 43.18,134.65 79.86,189.44 35.29,52.46 82.18,93.79 139.29,124.42 57.57,30.18 125.81,45.5 205.21,45.5 81.26,0 151.36,-19.03 209.86,-57.11 58.97,-37.61 115.61,-105.85 170.4,-204.75l94.72 58.5zm-303.64 -509.78c0,-50.61 -4.18,-104.93 -13.01,-162.5 -8.35,-58.04 -22.28,-106.32 -41.32,-144.86 -20.89,-41.79 -49.68,-75.68 -85.9,-101.67 -36.21,-26.47 -83.11,-39.47 -140.21,-39.47 -95.64,0 -175.04,39.47 -237.72,118.39 -63.15,79.4 -97.5,188.96 -103.07,330.11l621.23 0zm1942.59 824.58l-660.23 0 0 -89.15c20.89,-1.86 44.11,-3.71 68.72,-5.57 25.07,-1.86 45.97,-5.11 62.22,-10.68 25.53,-8.36 44.57,-22.29 56.64,-42.72 12.54,-20.43 18.58,-46.89 18.58,-79.86l0 -689c0,-95.18 -22.29,-168.54 -66.87,-220.08 -45.03,-51.54 -99.35,-77.54 -163.42,-77.54 -47.83,0 -91.47,7.43 -130.93,22.29 -39.93,14.86 -75.22,33.43 -105.86,55.25 -29.71,20.9 -53.39,43.18 -71.04,67.33 -17.64,23.68 -30.18,43.18 -38.53,57.57l0 770.73c0,30.64 6.5,56.18 19.03,76.14 12.54,19.97 31.58,35.29 57.11,46.44 18.58,8.82 39.47,15.78 61.29,20.43 22.29,4.17 45.04,7.42 68.72,9.28l0 89.15 -660.22 0 0 -89.15c20.89,-1.86 42.71,-3.71 65,-5.57 22.29,-1.86 41.32,-5.11 57.58,-10.68 25.53,-8.36 44.57,-22.29 56.64,-42.72 12.54,-20.43 18.57,-46.89 18.57,-79.39l0 -827.37c0,-30.65 -6.5,-58.97 -19.5,-84.97 -13.46,-25.54 -31.57,-46.9 -55.25,-63.15 -17.18,-10.68 -37.61,-18.57 -60.83,-23.68 -23.68,-5.11 -49.21,-8.36 -76.14,-10.22l0 -89.14 448.97 -30.65 19.04 19.04 0 189.89 6.96 0c21.36,-21.82 48.75,-47.82 81.26,-78.47 32.5,-30.18 63.14,-54.79 91.93,-73.82 33.43,-21.82 73.36,-39.93 119.32,-54.33 45.97,-14.39 97.96,-21.82 155.53,-21.82 128.15,0 223.33,39.93 285.08,120.25 61.76,80.32 92.87,186.64 92.87,319.89l0 697.36c0,31.58 5.57,57.11 16.71,76.61 11.15,19.51 29.72,34.83 56.65,45.51 22.29,9.28 41.32,15.78 57.57,19.03 15.79,3.72 38.08,6.5 66.87,8.36l0 89.15zm988.48 -58.04c-58.97,24.15 -114.68,44.57 -167.15,61.29 -52.47,16.25 -117,24.61 -192.68,24.61 -112.35,0 -191.75,-28.32 -237.25,-84.97 -45.97,-56.65 -68.72,-136.96 -68.72,-240.04l0 -909.08 -242.36 0 0 -130.93 247.93 0 0 -417.86 247.93 0 0 417.86 384.44 0 0 130.93 -381.65 0 0 751.69c0,56.64 1.86,103.53 6.04,141.6 4.17,37.61 13.93,70.58 29.25,98.89 14.39,26 36.21,46.43 65,59.9 28.79,13.46 67.79,20.43 116.53,20.43 22.76,0 56.19,-2.32 99.82,-6.5 43.65,-4.18 74.76,-9.29 92.87,-15.79l0 97.96zm1571.63 32.97l-439.23 30.64 -20.43 -19.04 0 -169.92 -8.35 0c-21.36,22.75 -45.97,46.89 -72.9,72.43 -26.93,26 -58.04,49.22 -93.33,70.11 -40.86,24.61 -79.86,43.18 -117.92,55.72 -37.61,12.53 -91.47,18.57 -161.11,18.57 -117.93,0 -208.01,-38.54 -269.76,-116.07 -61.75,-77.54 -92.86,-190.36 -92.86,-338l0 -642.12c0,-32.5 -6.04,-59.89 -18.57,-82.18 -12.08,-22.29 -30.19,-41.79 -53.87,-58.04 -16.25,-10.68 -36.68,-18.57 -61.28,-23.68 -24.61,-5.11 -50.62,-8.36 -78.01,-10.22l0 -89.14 447.58 -30.65 20.43 19.04 0 931.36c0,96.57 21.82,169.47 65,218.69 43.19,48.75 95.18,73.36 155.54,73.36 49.68,0 93.79,-7.89 132.32,-23.22 39,-15.32 71.5,-33.43 97.5,-54.32 24.14,-19.04 45.5,-39.47 64.07,-60.83 18.57,-20.89 32.97,-40.86 42.72,-58.97l0 -760.5c0,-30.18 -6.5,-56.65 -19.04,-79.87 -13,-23.21 -30.64,-42.71 -53.4,-58.96 -16.25,-11.15 -40.39,-17.65 -72.89,-19.97 -32.04,-2.32 -68.26,-4.18 -108.18,-6.04l0 -89.14 489.36 -30.65 20.43 19.04 0 1063.22c0,30.64 6.5,57.11 19.04,78.93 13,21.36 30.64,39.93 53.39,55.26 16.25,10.21 35.75,16.71 58.51,19.96 22.75,3.25 47.82,5.11 75.22,6.04l0 89.15zm1192.76 -1145.87c0,45.96 -11.14,86.82 -33.9,122.57 -22.75,35.75 -57.57,53.86 -104.92,53.86 -50.61,0 -89.61,-13 -116.53,-39.01 -26.47,-26.46 -39.93,-55.25 -39.93,-86.82 0,-19.5 1.39,-37.61 4.64,-53.86 3.25,-16.25 6.03,-32.5 8.82,-48.76 -42.25,0 -91.47,17.18 -148.11,51.54 -56.64,34.36 -104.46,83.58 -143.92,146.72l0 782.79c0,32.04 6.03,57.58 18.1,77.54 12.54,20.43 31.58,35.29 58.04,45.04 22.29,9.29 51.54,16.25 87.3,20.43 35.75,4.64 66.86,7.89 92.86,9.75l0 89.15 -710.36 0 0 -89.15c20.89,-1.86 42.71,-3.71 65,-5.57 22.29,-1.86 41.32,-5.11 57.58,-10.68 25.53,-8.36 44.57,-22.29 56.64,-42.72 12.54,-20.43 18.57,-46.89 18.57,-79.39l0 -827.37c0,-27.86 -6.5,-55.72 -19.5,-82.65 -13.46,-27.4 -31.57,-49.22 -55.25,-65.47 -17.18,-10.68 -37.61,-18.57 -60.83,-23.68 -23.68,-5.11 -49.21,-8.36 -76.14,-10.22l0 -89.14 448.97 -30.65 19.04 18.57 0 186.65 6.96 0c55.72,-73.36 117.93,-129.54 186.65,-167.61 68.71,-38.07 131.39,-57.11 188.03,-57.11 57.11,0 103.07,18.57 138.82,55.72 35.76,37.14 53.4,86.83 53.4,149.5zm1305.59 856.14c-56.19,106.79 -131.86,192.22 -226.58,255.83 -94.25,63.61 -203.36,95.18 -325.93,95.18 -108.17,0 -202.89,-19.04 -284.61,-57.11 -81.26,-38.08 -148.11,-89.62 -201.04,-154.61 -52.93,-65.47 -91.94,-141.61 -117.93,-228.43 -26,-86.83 -39,-178.76 -39,-275.33 0,-87.29 13.93,-172.72 41.79,-256.29 27.39,-83.58 68.25,-159.25 121.64,-226.12 52,-64.07 116.07,-116.06 193.14,-155.53 76.62,-39.47 162.97,-58.97 258.15,-58.97 98.43,0 182.47,15.32 252.58,46.43 69.65,30.65 126.75,72.9 170.39,126.29 41.79,50.61 72.9,110.49 93.33,179.21 20.43,68.72 30.65,143.46 30.65,224.26l0 89.61 -891.44 0c0,88.22 8.36,168.07 25.54,239.57 16.71,71.51 43.18,134.65 79.86,189.44 35.29,52.46 82.18,93.79 139.29,124.42 57.57,30.18 125.81,45.5 205.21,45.5 81.26,0 151.36,-19.03 209.86,-57.11 58.97,-37.61 115.61,-105.85 170.4,-204.75l94.72 58.5zm-303.64 -509.78c0,-50.61 -4.18,-104.93 -13.01,-162.5 -8.35,-58.04 -22.28,-106.32 -41.32,-144.86 -20.89,-41.79 -49.68,-75.68 -85.9,-101.67 -36.21,-26.47 -83.11,-39.47 -140.21,-39.47 -95.64,0 -175.04,39.47 -237.72,118.39 -63.15,79.4 -97.5,188.96 -103.07,330.11l621.23 0z"/>
   </g>
   <path class="fil2" d="M7847.72 8203.1l0.94 2.81c1.25,62.53 -20.79,115.05 -65.97,157.41 -45.18,42.37 -104.88,63.63 -179.14,63.63 -75.35,0 -136.78,-26.73 -184.3,-80.04 -47.37,-53.46 -71.13,-121.14 -71.13,-203.22l0 -118.64c0,-82.07 23.76,-149.91 71.13,-203.37 47.52,-53.62 108.95,-80.36 184.3,-80.36 75.51,0 135.53,20.17 180.08,60.35 44.55,40.33 66.28,93.48 65.03,159.75l-0.94 2.82 -86.6 0c0,-46.74 -13.76,-83.64 -41.12,-110.83 -27.51,-27.2 -66.28,-40.8 -116.45,-40.8 -50.34,0 -90.51,20.32 -120.36,60.81 -29.86,40.49 -44.87,90.67 -44.87,150.69l0 119.11c0,60.66 15.01,111.14 44.87,151.63 29.86,40.49 70.03,60.81 120.36,60.81 50.18,0 88.95,-13.44 116.45,-40.49 27.36,-27.04 41.12,-64.4 41.12,-112.07l86.6 0zm737.73 42.83l-279.35 0 -63.32 171.64 -91.92 0 257.78 -666.86 77.38 0 253.71 666.86 -92.08 0 -62.21 -171.64zm-251.53 -75.97l224.48 0 -109.89 -303.42 -2.81 0 -111.77 303.42zm1145.41 -46.9l-304.19 0 0 294.5 -90.2 0 0 -666.86 441.13 0 0 71.29 -350.93 0 0 229.79 304.19 0 0 71.29zm801.35 -14.07l-305.6 0 0 237.29 352.18 0 0 71.29 -442.38 0 0 -666.86 437.38 0 0 71.29 -347.18 0 0 215.72 305.6 0 0 71.29zm-146.78 -525.24l105.35 0 0.78 2.82 -123.49 119.11 -67.37 0 84.73 -121.93zm965.95 654.21c0,-37.21 10.63,-69.88 32.2,-97.7 21.58,-27.98 53.62,-55.96 96.45,-84.1 -23.92,-30.17 -41.59,-57.06 -53.15,-80.67 -11.57,-23.76 -17.36,-47.99 -17.36,-73 0,-51.59 14.86,-91.45 44.56,-119.27 29.86,-27.98 70.81,-41.9 123.02,-41.9 48.15,0 87.39,13.92 117.7,41.59 30.17,27.82 45.34,61.28 45.34,100.35 0,29.86 -7.97,55.65 -24.08,77.54 -16.1,21.73 -39.7,44.08 -71.28,67.06l-49.87 36.58 155.69 187.28c12.51,-19.86 22.36,-41.9 29.39,-65.97 7.04,-24.08 10.48,-49.72 10.48,-76.45l80.66 0c0,40.18 -5.94,77.54 -17.98,111.61 -11.88,34.23 -29.07,65.03 -51.74,92.23l84.73 102.08 -0.78 2.34 -104.89 0 -38.92 -46.9c-24.55,18.29 -51.44,32.21 -81.14,41.9 -29.55,9.53 -60.34,14.38 -92.08,14.38 -66.28,0 -118.95,-17.51 -158.19,-52.68 -39.24,-35.02 -58.78,-80.51 -58.78,-136.31zm216.97 117.7c22.05,0 43.78,-3.75 65.04,-11.1 21.41,-7.5 41.58,-18.29 60.5,-32.2l-165.39 -198.37 -18.29 13.13c-27.83,20.79 -46.12,40.49 -55.18,59.41 -9.07,18.76 -13.45,35.8 -13.45,50.96 0,34.39 10.79,62.69 32.52,84.89 21.57,22.19 53.15,33.29 94.26,33.29zm-68.62 -453.95c0,16.1 4.06,32.98 12.35,50.49 8.28,17.51 20.63,36.58 37.05,57.37l63.15 -43.46c17.51,-11.56 29.24,-24.07 35.49,-37.67 6.41,-13.6 9.53,-28.61 9.53,-45.02 0,-18.61 -7.5,-35.02 -22.35,-49.4 -14.7,-14.23 -34.08,-21.42 -57.84,-21.42 -24.7,0 -43.77,8.6 -57.22,25.79 -13.44,17.2 -20.16,38.3 -20.16,63.32zm1065.84 226.98l0 288.87 -90.2 0 0 -665.92 241.36 0c73,0 128.8,16.1 167.26,48.46 38.45,32.36 57.68,79.26 57.68,140.84 0,34.24 -8.91,63.94 -26.89,89.27 -17.82,25.17 -43.77,45.33 -78,60.34 36.58,11.88 63,31.27 78.94,57.84 16.1,26.73 24.08,59.88 24.08,99.26l0 62.69c0,20.79 2.34,39.39 6.87,55.96 4.54,16.42 12.51,29.86 23.77,40.34l0 10.94 -92.86 0c-12.04,-10.32 -19.54,-25.64 -22.98,-45.8 -3.29,-20.17 -5,-40.96 -5,-62.22l0 -60.97c0,-35.96 -10.48,-65.03 -31.58,-86.92 -21.11,-22.04 -49.4,-32.98 -84.73,-32.98l-167.73 0zm0 -71.29l142.09 0c50.96,0 87.7,-9.69 110.04,-28.92 22.52,-19.23 33.77,-48.62 33.77,-88.17 0,-37.21 -10.94,-66.13 -32.83,-86.61 -21.73,-20.48 -55.81,-30.79 -101.91,-30.79l-151.16 0 0 234.48zm1180.73 51.59l-305.6 0 0 237.29 352.18 0 0 71.29 -442.38 0 0 -666.86 437.38 0 0 71.29 -347.18 0 0 215.72 305.6 0 0 71.29zm769.29 140.37c0,-30.33 -11.57,-55.65 -34.39,-76.13 -22.98,-20.48 -63.47,-37.68 -121.77,-51.59 -70.66,-16.88 -125.68,-41.58 -165.23,-74.26 -39.39,-32.82 -59.25,-73.94 -59.25,-123.48 0,-52.06 21.26,-95.36 63.94,-130.22 42.52,-34.86 97.7,-52.37 165.54,-52.37 73.01,0 131,20.01 174.3,60.19 43.15,40.02 63.94,86.45 62.37,139.28l-0.78 2.81 -86.13 0c0,-39.08 -12.98,-70.66 -38.77,-94.89 -25.8,-24.07 -62.85,-36.11 -110.99,-36.11 -44.86,0 -79.41,10.16 -103.32,30.33 -23.92,20.32 -35.96,46.74 -35.96,79.41 0,28.92 12.98,53 38.93,72.38 25.95,19.39 68.16,36.43 126.46,50.96 70.19,17.36 123.65,43 160.23,76.92 36.73,33.92 55.02,75.82 55.02,125.83 0,53.78 -22.04,96.92 -65.97,129.59 -43.93,32.67 -101.44,48.93 -172.26,48.93 -66.44,0 -125.37,-18.13 -176.49,-54.4 -51.11,-36.27 -75.97,-84.73 -74.41,-145.07l0.94 -2.81 85.98 0c0,42.68 15.79,75.35 47.21,97.54 31.42,22.35 70.35,33.45 116.77,33.45 45.49,0 81.6,-9.53 108.17,-28.6 26.57,-19.08 39.86,-45.03 39.86,-77.7zm926.71 -427.38l-214.32 0 0 595.58 -90.2 0 0 -595.58 -213.85 0 0 -71.29 518.36 0 0 71.29zm663.47 423.94l-279.35 0 -63.32 171.64 -91.92 0 257.78 -666.86 77.38 0 253.71 666.86 -92.08 0 -62.21 -171.64zm-251.53 -75.97l224.48 0 -109.89 -303.42 -2.81 0 -111.77 303.42zm1238.42 -419.26l0 451.93c0,72.69 -23.61,128.18 -70.82,166.63 -47.21,38.46 -108.79,57.69 -184.77,57.69 -73.32,0 -132.71,-19.39 -178.36,-58 -45.65,-38.61 -68.47,-93.95 -68.47,-166.32l0 -451.93 90.2 0 0 451.3c0,50.34 14.38,88.49 42.99,114.58 28.76,26.11 66.6,39.08 113.64,39.08 49.4,0 89.42,-12.97 119.74,-39.08 30.33,-26.1 45.49,-64.25 45.49,-114.58l0 -451.3 90.36 0zm491.2 377.99l0 288.87 -90.2 0 0 -665.92 241.36 0c73,0 128.8,16.1 167.26,48.46 38.45,32.36 57.68,79.26 57.68,140.84 0,34.24 -8.91,63.94 -26.89,89.27 -17.82,25.17 -43.77,45.33 -78,60.34 36.58,11.88 63,31.27 78.94,57.84 16.1,26.73 24.08,59.88 24.08,99.26l0 62.69c0,20.79 2.34,39.39 6.87,55.96 4.54,16.42 12.51,29.86 23.77,40.34l0 10.94 -92.86 0c-12.04,-10.32 -19.54,-25.64 -22.98,-45.8 -3.29,-20.17 -5,-40.96 -5,-62.22l0 -60.97c0,-35.96 -10.48,-65.03 -31.58,-86.92 -21.11,-22.04 -49.4,-32.98 -84.73,-32.98l-167.73 0zm0 -71.29l142.09 0c50.96,0 87.7,-9.69 110.04,-28.92 22.52,-19.23 33.77,-48.62 33.77,-88.17 0,-37.21 -10.94,-66.13 -32.83,-86.61 -21.73,-20.48 -55.81,-30.79 -101.91,-30.79l-151.16 0 0 234.48zm1146.34 188.52l-279.35 0 -63.32 171.64 -91.92 0 257.78 -666.86 77.38 0 253.71 666.86 -92.08 0 -62.21 -171.64zm-251.53 -75.97l224.48 0 -109.89 -303.42 -2.81 0 -111.77 303.42zm1255.3 247.61l-90.2 0 -321.08 -515.7 -2.81 0.94 0 514.76 -90.2 0 0 -666.86 90.2 0 321.07 514.76 2.82 -0.94 0 -513.82 90.2 0 0 666.86zm856.68 -595.58l-214.32 0 0 595.58 -90.2 0 0 -595.58 -213.85 0 0 -71.29 518.36 0 0 71.29z"/>
   <g>
    <path class="fil3" d="M2587.76 2830.29c-1025.81,-66.01 -1175.77,318.72 -1137.61,-837.2 12.32,-373 47.65,-1698.96 -16.9,-1987.34 -520.71,-50.66 -877.85,243.49 -1092.65,483.4 -310.85,347.16 -313.67,703.79 -313.39,1229.62 0.53,991.1 -124.04,5546.84 155.56,6084.01 427.97,822.19 1241.4,818.41 2380.2,733.03 -242.23,-148.57 -315.01,-117.67 -639.12,-385.2 -129.53,-106.91 -305.17,-368.72 -381.04,-614.61 -151.22,-490.05 -146.79,-3297.55 25.25,-3762.33 207.73,-561.14 534.67,-670.23 1019.7,-943.39z"/>
    <path class="fil3" d="M3898.9 2163.22c43.82,-11.53 -29.13,-24.08 68.47,30.78 38.51,21.63 66.35,39.4 111.91,62.91 251.9,129.96 387.29,220.55 581.44,450.07 188.56,222.89 312.6,653.38 312.6,1033.82l-20.39 1576.47c-5.41,1074.16 -233.23,2473.37 837.03,2591.4 506.63,55.89 621.77,-119.3 621.77,-466.6l0 -3427.12c0,-610.31 -5.98,-973.12 -336.32,-1386.14 -500.41,-625.65 -1330.66,-495.89 -2176.51,-465.59z"/>
    <path class="fil3" d="M4257.42 4993.04c-412.98,-60.42 -993.52,192.73 -1228.57,684.5 -406.71,850.96 -343.26,2294.86 591.84,2729.22 384.97,178.81 1333.32,183.53 1778.22,124.63 -430.47,-218.24 -712.68,-360.29 -919.43,-709.28 -316.66,-534.55 -207.24,-2083.27 -222.06,-2829.07z"/>
   </g>
   <path class="fil4" d="M3517.14 2776.98c380.39,0 688.75,308.36 688.75,688.75 0,380.39 -308.36,688.75 -688.75,688.75 -380.39,0 -688.75,-308.36 -688.75,-688.75 0,-380.39 308.36,-688.75 688.75,-688.75z"/>
  </g>
 </g>
</svg>
